# Car Assembly OBJ File with Individual Components
# Created for AR Hand Control Project
# Each component can be manipulated separately

# Car Body (Main Chassis)
g car_body
# Body vertices (main chassis - rectangular prism)
v -0.8 0.0 -1.8
v 0.8 0.0 -1.8
v 0.8 0.0 1.8
v -0.8 0.0 1.8
v -0.8 0.6 -1.8
v 0.8 0.6 -1.8
v 0.8 0.6 1.8
v -0.8 0.6 1.8
# Cabin vertices
v -0.6 0.6 -0.5
v 0.6 0.6 -0.5
v 0.6 0.6 0.8
v -0.6 0.6 0.8
v -0.6 1.2 -0.5
v 0.6 1.2 -0.5
v 0.6 1.2 0.8
v -0.6 1.2 0.8

# Body faces (chassis)
f 1 2 6 5
f 2 3 7 6
f 3 4 8 7
f 4 1 5 8
f 5 6 7 8
f 1 4 3 2

# Cabin faces
f 9 10 14 13
f 10 11 15 14
f 11 12 16 15
f 12 9 13 16
f 13 14 15 16

# Front Left Wheel
g wheel_front_left
v -1.0 -0.2 1.4
v -1.0 0.2 1.4
v -1.1 -0.2 1.4
v -1.1 0.2 1.4
v -1.07 -0.2 1.47
v -1.07 0.2 1.47
v -1.0 -0.2 1.5
v -1.0 0.2 1.5
v -0.93 -0.2 1.47
v -0.93 0.2 1.47
v -0.9 -0.2 1.4
v -0.9 0.2 1.4
v -0.93 -0.2 1.33
v -0.93 0.2 1.33
v -1.0 -0.2 1.3
v -1.0 0.2 1.3
v -1.07 -0.2 1.33
v -1.07 0.2 1.33

# Front left wheel faces
f 17 18 20 19
f 19 20 22 21
f 21 22 24 23
f 23 24 26 25
f 25 26 28 27
f 27 28 30 29
f 29 30 32 31
f 31 32 34 33
f 33 34 20 19
f 18 20 22 24
f 17 33 31 29

# Front Right Wheel
g wheel_front_right
v 1.0 -0.2 1.4
v 1.0 0.2 1.4
v 1.1 -0.2 1.4
v 1.1 0.2 1.4
v 1.07 -0.2 1.47
v 1.07 0.2 1.47
v 1.0 -0.2 1.5
v 1.0 0.2 1.5
v 0.93 -0.2 1.47
v 0.93 0.2 1.47
v 0.9 -0.2 1.4
v 0.9 0.2 1.4
v 0.93 -0.2 1.33
v 0.93 0.2 1.33
v 1.0 -0.2 1.3
v 1.0 0.2 1.3
v 1.07 -0.2 1.33
v 1.07 0.2 1.33

# Front right wheel faces
f 35 36 38 37
f 37 38 40 39
f 39 40 42 41
f 41 42 44 43
f 43 44 46 45
f 45 46 48 47
f 47 48 50 49
f 49 50 52 51
f 51 52 38 37
f 36 38 40 42
f 35 51 49 47

# Rear Left Wheel
g wheel_rear_left
v -1.0 -0.2 -1.4
v -1.0 0.2 -1.4
v -1.1 -0.2 -1.4
v -1.1 0.2 -1.4
v -1.07 -0.2 -1.33
v -1.07 0.2 -1.33
v -1.0 -0.2 -1.3
v -1.0 0.2 -1.3
v -0.93 -0.2 -1.33
v -0.93 0.2 -1.33
v -0.9 -0.2 -1.4
v -0.9 0.2 -1.4
v -0.93 -0.2 -1.47
v -0.93 0.2 -1.47
v -1.0 -0.2 -1.5
v -1.0 0.2 -1.5
v -1.07 -0.2 -1.47
v -1.07 0.2 -1.47

# Rear left wheel faces
f 53 54 56 55
f 55 56 58 57
f 57 58 60 59
f 59 60 62 61
f 61 62 64 63
f 63 64 66 65
f 65 66 68 67
f 67 68 70 69
f 69 70 56 55
f 54 56 58 60
f 53 69 67 65

# Rear Right Wheel
g wheel_rear_right
v 1.0 -0.2 -1.4
v 1.0 0.2 -1.4
v 1.1 -0.2 -1.4
v 1.1 0.2 -1.4
v 1.07 -0.2 -1.33
v 1.07 0.2 -1.33
v 1.0 -0.2 -1.3
v 1.0 0.2 -1.3
v 0.93 -0.2 -1.33
v 0.93 0.2 -1.33
v 0.9 -0.2 -1.4
v 0.9 0.2 -1.4
v 0.93 -0.2 -1.47
v 0.93 0.2 -1.47
v 1.0 -0.2 -1.5
v 1.0 0.2 -1.5
v 1.07 -0.2 -1.47
v 1.07 0.2 -1.47

# Rear right wheel faces
f 71 72 74 73
f 73 74 76 75
f 75 76 78 77
f 77 78 80 79
f 79 80 82 81
f 81 82 84 83
f 83 84 86 85
f 85 86 88 87
f 87 88 74 73
f 72 74 76 78
f 71 87 85 83

# Left Door
g door_left
v -0.8 0.1 -0.4
v -0.8 0.1 0.6
v -0.8 1.1 0.6
v -0.8 1.1 -0.4
v -0.9 0.1 -0.4
v -0.9 0.1 0.6
v -0.9 1.1 0.6
v -0.9 1.1 -0.4

# Left door faces
f 89 90 91 92
f 93 96 95 94
f 89 93 94 90
f 90 94 95 91
f 91 95 96 92
f 92 96 93 89

# Right Door
g door_right
v 0.8 0.1 -0.4
v 0.8 0.1 0.6
v 0.8 1.1 0.6
v 0.8 1.1 -0.4
v 0.9 0.1 -0.4
v 0.9 0.1 0.6
v 0.9 1.1 0.6
v 0.9 1.1 -0.4

# Right door faces
f 97 100 99 98
f 101 102 103 104
f 97 98 102 101
f 98 99 103 102
f 99 100 104 103
f 100 97 101 104

# Hood
g hood
v -0.7 0.6 0.9
v 0.7 0.6 0.9
v 0.7 0.65 1.7
v -0.7 0.65 1.7
v -0.6 0.7 1.0
v 0.6 0.7 1.0
v 0.6 0.75 1.6
v -0.6 0.75 1.6

# Hood faces
f 105 106 107 108
f 109 112 111 110
f 105 109 110 106
f 106 110 111 107
f 107 111 112 108
f 108 112 109 105

# Windshield
g windshield
v -0.6 1.2 0.7
v 0.6 1.2 0.7
v 0.5 1.35 0.9
v -0.5 1.35 0.9

# Windshield faces
f 113 114 115 116

# Left Headlight
g headlight_left
v -0.5 0.4 1.8
v -0.5 0.3 1.9
v -0.4 0.4 1.9
v -0.5 0.5 1.9
v -0.6 0.4 1.9

# Left headlight faces
f 117 118 119
f 117 119 120
f 117 120 121
f 117 121 118
f 118 119 120 121

# Right Headlight
g headlight_right
v 0.5 0.4 1.8
v 0.5 0.3 1.9
v 0.6 0.4 1.9
v 0.5 0.5 1.9
v 0.4 0.4 1.9

# Right headlight faces
f 122 123 124
f 122 124 125
f 122 125 126
f 122 126 123
f 123 124 125 126

# Front Bumper
g bumper_front
v -0.8 -0.1 1.9
v 0.8 -0.1 1.9
v 0.8 0.3 1.9
v -0.8 0.3 1.9
v -0.75 -0.05 1.85
v 0.75 -0.05 1.85
v 0.75 0.25 1.85
v -0.75 0.25 1.85

# Front bumper faces
f 127 128 129 130
f 131 134 133 132
f 127 131 132 128
f 128 132 133 129
f 129 133 134 130
f 130 134 131 127

# Rear Bumper
g bumper_rear
v -0.8 -0.1 -1.9
v 0.8 -0.1 -1.9
v 0.8 0.3 -1.9
v -0.8 0.3 -1.9
v -0.75 -0.05 -1.85
v 0.75 -0.05 -1.85
v 0.75 0.25 -1.85
v -0.75 0.25 -1.85

# Rear bumper faces
f 135 138 137 136
f 139 140 141 142
f 135 136 140 139
f 136 137 141 140
f 137 138 142 141
f 138 135 139 142