# Complex CAD Assembly - Multiple Distinct Components
# This file contains several separate components that can be manipulated individually

# Component 1: Main Housing (rectangular block)
g housing
v -1.5 -0.5 -1.0
v  1.5 -0.5 -1.0
v  1.5  0.5 -1.0
v -1.5  0.5 -1.0
v -1.5 -0.5  1.0
v  1.5 -0.5  1.0
v  1.5  0.5  1.0
v -1.5  0.5  1.0

# Housing faces
f 1 2 3 4
f 8 7 6 5
f 1 5 6 2
f 2 6 7 3
f 3 7 8 4
f 4 8 5 1

# Component 2: Shaft (cylinder)
g shaft
# Bottom circle
v  0.2  0.5  0.0
v  0.141 0.5  0.141
v  0.0  0.5  0.2
v -0.141 0.5  0.141
v -0.2  0.5  0.0
v -0.141 0.5 -0.141
v  0.0  0.5 -0.2
v  0.141 0.5 -0.141
# Top circle
v  0.2  2.0  0.0
v  0.141 2.0  0.141
v  0.0  2.0  0.2
v -0.141 2.0  0.141
v -0.2  2.0  0.0
v -0.141 2.0 -0.141
v  0.0  2.0 -0.2
v  0.141 2.0 -0.141

# Shaft faces
f 9 10 11 12 13 14 15 16
f 24 23 22 21 20 19 18 17
f 9 17 18 10
f 10 18 19 11
f 11 19 20 12
f 12 20 21 13
f 13 21 22 14
f 14 22 23 15
f 15 23 24 16
f 16 24 17 9

# Component 3: Gear Wheel
g gear_wheel
# Inner vertices (gear center)
v  0.4  2.0  0.0
v  0.283 2.0  0.283
v  0.0  2.0  0.4
v -0.283 2.0  0.283
v -0.4  2.0  0.0
v -0.283 2.0 -0.283
v  0.0  2.0 -0.4
v  0.283 2.0 -0.283
# Outer vertices (gear teeth)
v  0.6  2.0  0.0
v  0.424 2.0  0.424
v  0.0  2.0  0.6
v -0.424 2.0  0.424
v -0.6  2.0  0.0
v -0.424 2.0 -0.424
v  0.0  2.0 -0.6
v  0.424 2.0 -0.424
# Top face vertices
v  0.4  2.3  0.0
v  0.283 2.3  0.283
v  0.0  2.3  0.4
v -0.283 2.3  0.283
v -0.4  2.3  0.0
v -0.283 2.3 -0.283
v  0.0  2.3 -0.4
v  0.283 2.3 -0.283
v  0.6  2.3  0.0
v  0.424 2.3  0.424
v  0.0  2.3  0.6
v -0.424 2.3  0.424
v -0.6  2.3  0.0
v -0.424 2.3 -0.424
v  0.0  2.3 -0.6
v  0.424 2.3 -0.424

# Gear faces (simplified)
f 25 26 27 28 29 30 31 32
f 33 34 35 36 37 38 39 40
f 49 50 51 52 53 54 55 56
f 57 58 59 60 61 62 63 64

# Component 4: Support Bracket
g bracket
v -2.0  0.5  0.8
v -1.8  0.5  0.8
v -1.8  1.5  0.8
v -2.0  1.5  0.8
v -2.0  0.5  1.0
v -1.8  0.5  1.0
v -1.8  1.5  1.0
v -2.0  1.5  1.0

# Bracket faces
f 65 66 67 68
f 72 71 70 69
f 65 69 70 66
f 66 70 71 67
f 67 71 72 68
f 68 72 69 65

# Component 5: Small Connector
g connector
v  1.8  0.3 -0.1
v  2.2  0.3 -0.1
v  2.2  0.7 -0.1
v  1.8  0.7 -0.1
v  1.8  0.3  0.1
v  2.2  0.3  0.1
v  2.2  0.7  0.1
v  1.8  0.7  0.1

# Connector faces
f 73 74 75 76
f 80 79 78 77
f 73 77 78 74
f 74 78 79 75
f 75 79 80 76
f 76 80 77 73
