# Simple armored humanoid (fan-art, low-poly)
v -0.275000 0.900000 -0.150000
v 0.275000 0.900000 -0.150000
v 0.275000 1.700000 -0.150000
v -0.275000 1.700000 -0.150000
v -0.275000 0.900000 0.150000
v 0.275000 0.900000 0.150000
v 0.275000 1.700000 0.150000
v -0.275000 1.700000 0.150000
v -0.225000 0.500000 -0.140000
v 0.225000 0.500000 -0.140000
v 0.225000 0.900000 -0.140000
v -0.225000 0.900000 -0.140000
v -0.225000 0.500000 0.140000
v 0.225000 0.500000 0.140000
v 0.225000 0.900000 0.140000
v -0.225000 0.900000 0.140000
v -0.200000 0.275000 -0.130000
v 0.200000 0.275000 -0.130000
v 0.200000 0.525000 -0.130000
v -0.200000 0.525000 -0.130000
v -0.200000 0.275000 0.130000
v 0.200000 0.275000 0.130000
v 0.200000 0.525000 0.130000
v -0.200000 0.525000 0.130000
v -0.140000 1.640000 -0.110000
v 0.140000 1.640000 -0.110000
v 0.140000 1.960000 -0.110000
v -0.140000 1.960000 -0.110000
v -0.140000 1.640000 0.150000
v 0.140000 1.640000 0.150000
v 0.140000 1.960000 0.150000
v -0.140000 1.960000 0.150000
v -0.490000 1.390000 -0.170000
v -0.270000 1.390000 -0.170000
v -0.270000 1.510000 -0.170000
v -0.490000 1.510000 -0.170000
v -0.490000 1.390000 0.170000
v -0.270000 1.390000 0.170000
v -0.270000 1.510000 0.170000
v -0.490000 1.510000 0.170000
v 0.270000 1.390000 -0.170000
v 0.490000 1.390000 -0.170000
v 0.490000 1.510000 -0.170000
v 0.270000 1.510000 -0.170000
v 0.270000 1.390000 0.170000
v 0.490000 1.390000 0.170000
v 0.490000 1.510000 0.170000
v 0.270000 1.510000 0.170000
v -0.580000 0.900000 -0.090000
v -0.420000 0.900000 -0.090000
v -0.420000 1.400000 -0.090000
v -0.580000 1.400000 -0.090000
v -0.580000 0.900000 0.090000
v -0.420000 0.900000 0.090000
v -0.420000 1.400000 0.090000
v -0.580000 1.400000 0.090000
v 0.420000 0.900000 -0.090000
v 0.580000 0.900000 -0.090000
v 0.580000 1.400000 -0.090000
v 0.420000 1.400000 -0.090000
v 0.420000 0.900000 0.090000
v 0.580000 0.900000 0.090000
v 0.580000 1.400000 0.090000
v 0.420000 1.400000 0.090000
v -0.570000 0.550000 -0.090000
v -0.430000 0.550000 -0.090000
v -0.430000 0.950000 -0.090000
v -0.570000 0.950000 -0.090000
v -0.570000 0.550000 0.090000
v -0.430000 0.550000 0.090000
v -0.430000 0.950000 0.090000
v -0.570000 0.950000 0.090000
v 0.430000 0.550000 -0.090000
v 0.570000 0.550000 -0.090000
v 0.570000 0.950000 -0.090000
v 0.430000 0.950000 -0.090000
v 0.430000 0.550000 0.090000
v 0.570000 0.550000 0.090000
v 0.570000 0.950000 0.090000
v 0.430000 0.950000 0.090000
v -0.580000 0.480000 0.020000
v -0.420000 0.480000 0.020000
v -0.420000 0.620000 0.020000
v -0.580000 0.620000 0.020000
v -0.580000 0.480000 0.140000
v -0.420000 0.480000 0.140000
v -0.420000 0.620000 0.140000
v -0.580000 0.620000 0.140000
v 0.420000 0.480000 0.020000
v 0.580000 0.480000 0.020000
v 0.580000 0.620000 0.020000
v 0.420000 0.620000 0.020000
v 0.420000 0.480000 0.140000
v 0.580000 0.480000 0.140000
v 0.580000 0.620000 0.140000
v 0.420000 0.620000 0.140000
v -0.270000 -0.150000 -0.110000
v -0.090000 -0.150000 -0.110000
v -0.090000 0.450000 -0.110000
v -0.270000 0.450000 -0.110000
v -0.270000 -0.150000 0.110000
v -0.090000 -0.150000 0.110000
v -0.090000 0.450000 0.110000
v -0.270000 0.450000 0.110000
v 0.090000 -0.150000 -0.110000
v 0.270000 -0.150000 -0.110000
v 0.270000 0.450000 -0.110000
v 0.090000 0.450000 -0.110000
v 0.090000 -0.150000 0.110000
v 0.270000 -0.150000 0.110000
v 0.270000 0.450000 0.110000
v 0.090000 0.450000 0.110000
v -0.280000 -0.300000 -0.100000
v -0.080000 -0.300000 -0.100000
v -0.080000 -0.100000 -0.100000
v -0.280000 -0.100000 -0.100000
v -0.280000 -0.300000 0.220000
v -0.080000 -0.300000 0.220000
v -0.080000 -0.100000 0.220000
v -0.280000 -0.100000 0.220000
v 0.080000 -0.300000 -0.100000
v 0.280000 -0.300000 -0.100000
v 0.280000 -0.100000 -0.100000
v 0.080000 -0.100000 -0.100000
v 0.080000 -0.300000 0.220000
v 0.280000 -0.300000 0.220000
v 0.280000 -0.100000 0.220000
v 0.080000 -0.100000 0.220000
v 0.070000 1.300000 0.150000
v 0.066574 1.321631 0.150000
v 0.056631 1.341145 0.150000
v 0.041145 1.356631 0.150000
v 0.021631 1.366574 0.150000
v 0.000000 1.370000 0.150000
v -0.021631 1.366574 0.150000
v -0.041145 1.356631 0.150000
v -0.056631 1.341145 0.150000
v -0.066574 1.321631 0.150000
v -0.070000 1.300000 0.150000
v -0.066574 1.278369 0.150000
v -0.056631 1.258855 0.150000
v -0.041145 1.243369 0.150000
v -0.021631 1.233426 0.150000
v -0.000000 1.230000 0.150000
v 0.021631 1.233426 0.150000
v 0.041145 1.243369 0.150000
v 0.056631 1.258855 0.150000
v 0.066574 1.278369 0.150000
v 0.070000 1.300000 0.170000
v 0.066574 1.321631 0.170000
v 0.056631 1.341145 0.170000
v 0.041145 1.356631 0.170000
v 0.021631 1.366574 0.170000
v 0.000000 1.370000 0.170000
v -0.021631 1.366574 0.170000
v -0.041145 1.356631 0.170000
v -0.056631 1.341145 0.170000
v -0.066574 1.321631 0.170000
v -0.070000 1.300000 0.170000
v -0.066574 1.278369 0.170000
v -0.056631 1.258855 0.170000
v -0.041145 1.243369 0.170000
v -0.021631 1.233426 0.170000
v -0.000000 1.230000 0.170000
v 0.021631 1.233426 0.170000
v 0.041145 1.243369 0.170000
v 0.056631 1.258855 0.170000
v 0.066574 1.278369 0.170000
v 0.000000 1.300000 0.150000
v 0.000000 1.300000 0.170000
f 1 2 3 4
f 5 6 7 8
f 1 5 8 4
f 2 6 7 3
f 4 3 7 8
f 1 2 6 5
f 9 10 11 12
f 13 14 15 16
f 9 13 16 12
f 10 14 15 11
f 12 11 15 16
f 9 10 14 13
f 17 18 19 20
f 21 22 23 24
f 17 21 24 20
f 18 22 23 19
f 20 19 23 24
f 17 18 22 21
f 25 26 27 28
f 29 30 31 32
f 25 29 32 28
f 26 30 31 27
f 28 27 31 32
f 25 26 30 29
f 33 34 35 36
f 37 38 39 40
f 33 37 40 36
f 34 38 39 35
f 36 35 39 40
f 33 34 38 37
f 41 42 43 44
f 45 46 47 48
f 41 45 48 44
f 42 46 47 43
f 44 43 47 48
f 41 42 46 45
f 49 50 51 52
f 53 54 55 56
f 49 53 56 52
f 50 54 55 51
f 52 51 55 56
f 49 50 54 53
f 57 58 59 60
f 61 62 63 64
f 57 61 64 60
f 58 62 63 59
f 60 59 63 64
f 57 58 62 61
f 65 66 67 68
f 69 70 71 72
f 65 69 72 68
f 66 70 71 67
f 68 67 71 72
f 65 66 70 69
f 73 74 75 76
f 77 78 79 80
f 73 77 80 76
f 74 78 79 75
f 76 75 79 80
f 73 74 78 77
f 81 82 83 84
f 85 86 87 88
f 81 85 88 84
f 82 86 87 83
f 84 83 87 88
f 81 82 86 85
f 89 90 91 92
f 93 94 95 96
f 89 93 96 92
f 90 94 95 91
f 92 91 95 96
f 89 90 94 93
f 97 98 99 100
f 101 102 103 104
f 97 101 104 100
f 98 102 103 99
f 100 99 103 104
f 97 98 102 101
f 105 106 107 108
f 109 110 111 112
f 105 109 112 108
f 106 110 111 107
f 108 107 111 112
f 105 106 110 109
f 113 114 115 116
f 117 118 119 120
f 113 117 120 116
f 114 118 119 115
f 116 115 119 120
f 113 114 118 117
f 121 122 123 124
f 125 126 127 128
f 121 125 128 124
f 122 126 127 123
f 124 123 127 128
f 121 122 126 125
f 129 130 150 149
f 130 131 151 150
f 131 132 152 151
f 132 133 153 152
f 133 134 154 153
f 134 135 155 154
f 135 136 156 155
f 136 137 157 156
f 137 138 158 157
f 138 139 159 158
f 139 140 160 159
f 140 141 161 160
f 141 142 162 161
f 142 143 163 162
f 143 144 164 163
f 144 145 165 164
f 145 146 166 165
f 146 147 167 166
f 147 148 168 167
f 148 129 149 168
f 130 129 169
f 149 150 170
f 131 130 169
f 150 151 170
f 132 131 169
f 151 152 170
f 133 132 169
f 152 153 170
f 134 133 169
f 153 154 170
f 135 134 169
f 154 155 170
f 136 135 169
f 155 156 170
f 137 136 169
f 156 157 170
f 138 137 169
f 157 158 170
f 139 138 169
f 158 159 170
f 140 139 169
f 159 160 170
f 141 140 169
f 160 161 170
f 142 141 169
f 161 162 170
f 143 142 169
f 162 163 170
f 144 143 169
f 163 164 170
f 145 144 169
f 164 165 170
f 146 145 169
f 165 166 170
f 147 146 169
f 166 167 170
f 148 147 169
f 167 168 170
f 129 148 169
f 168 149 170
